# Blender v2.92.0 OBJ File: ''
# www.blender.org
o windowGlass
v -9.372000 5.522524 0.691673
v -9.372000 5.522524 0.466161
v -9.372000 5.323190 0.691673
v -9.372000 5.323190 0.466161
v -9.372000 7.264880 0.691673
v -9.372000 7.264880 3.593504
v -9.372000 5.323190 3.593504
v -9.372000 3.780168 3.593504
v -9.372000 3.780168 0.466161
v -9.372000 3.780168 -2.210159
v -9.372000 5.522524 -2.210159
v -9.372000 7.264880 -2.210158
v -9.372000 7.264880 0.466161
v -9.372000 3.780168 0.691672
v -9.372000 5.522524 3.593504
v -9.372000 5.323190 -2.210159
vt 0.550733 0.536093
vt 0.943455 0.536093
vt 0.943455 0.964442
vt 0.550734 0.964442
vt 0.550733 0.035558
vt 0.943455 0.035558
vt 0.943455 0.500000
vt 0.550734 0.500000
vt 0.056545 0.035558
vt 0.500000 0.035558
vt 0.500000 0.500000
vt 0.056545 0.500000
vt 0.056545 0.536093
vt 0.500000 0.536093
vt 0.500000 0.964442
vt 0.056545 0.964442
vn 1.0000 -0.0000 0.0000
s off
f 4/1/1 9/2/1 10/3/1 16/4/1
f 7/5/1 8/6/1 14/7/1 3/8/1
f 6/9/1 15/10/1 1/11/1 5/12/1
f 13/13/1 2/14/1 11/15/1 12/16/1
