# Blender v2.92.0 OBJ File: ''
# www.blender.org
o windowFrame
v -9.372000 7.487049 3.815673
v -9.372000 3.557999 3.815672
v -9.372000 7.487049 -2.432327
v -9.372000 3.557999 -2.432328
v -9.372000 7.487049 0.691673
v -9.372000 3.557999 0.691672
v -9.372000 5.522524 3.815672
v -9.372000 5.522524 -2.432327
v -9.372000 5.522524 0.691673
v -9.372000 3.557999 0.466161
v -9.372000 7.487049 0.466161
v -9.372000 5.522524 0.466161
v -9.372000 5.323190 3.815672
v -9.372000 5.323190 -2.432327
v -9.372000 5.323190 0.691673
v -9.372000 5.323190 0.466161
v -9.372000 7.264880 0.691673
v -9.372000 7.264880 3.593504
v -9.372000 5.323190 3.593504
v -9.372000 3.780168 3.593504
v -9.372000 3.780168 0.466161
v -9.372000 3.780168 -2.210159
v -9.372000 5.522524 -2.210159
v -9.372000 7.264880 -2.210158
v -9.372000 7.264880 0.466161
v -9.372000 3.780168 0.691672
v -9.372000 5.522524 3.593504
v -9.372000 5.323190 -2.210159
v -9.218484 7.264880 0.691673
v -9.218484 7.264880 3.593504
v -9.218484 5.323190 3.593504
v -9.218484 3.780168 3.593504
v -9.218484 3.780168 0.466161
v -9.218484 3.780168 -2.210159
v -9.218484 5.522524 -2.210159
v -9.218484 7.264880 -2.210158
v -9.218484 7.264880 0.466161
v -9.218484 3.780168 0.691672
v -9.218484 5.522524 0.691673
v -9.218484 5.522524 3.593504
v -9.218484 5.323190 -2.210159
v -9.218484 5.323190 0.691673
v -9.218484 5.522524 0.466161
v -9.218484 5.323190 0.466161
v -9.218484 7.487049 0.691673
v -9.218484 7.487049 3.815673
v -9.218484 5.323190 3.815672
v -9.218484 3.557999 3.815672
v -9.218484 3.557999 0.466161
v -9.218484 3.557999 -2.432328
v -9.218484 5.522524 -2.432327
v -9.218484 7.487049 -2.432327
v -9.218484 7.487049 0.466161
v -9.218484 3.557999 0.691672
v -9.218484 5.522524 3.815672
v -9.218484 5.323190 -2.432327
vt 0.943455 0.964442
vt 0.943455 0.536093
vt 0.943455 0.536093
vt 0.943455 0.964442
vt 0.500000 0.536093
vt 0.056545 0.536093
vt 0.056545 0.536093
vt 0.500000 0.536093
vt 0.000000 0.000000
vt 0.000000 0.000000
vt 0.000000 0.000000
vt 0.000000 0.000000
vt 0.943455 0.035558
vt 0.550733 0.035558
vt 0.550733 0.035558
vt 0.943455 0.035558
vt 0.000000 0.000000
vt 0.000000 0.000000
vt 0.000000 0.000000
vt 0.000000 0.000000
vt 0.056545 0.035558
vt 0.056545 0.500000
vt 0.056545 0.500000
vt 0.056545 0.035558
vt 0.056545 0.964442
vt 0.056545 0.964442
vt 0.000000 0.000000
vt 0.000000 0.000000
vt 0.000000 0.000000
vt 0.000000 0.000000
vt 0.000000 0.000000
vt 0.000000 0.000000
vt 0.000000 0.000000
vt 0.000000 0.000000
vt 0.500000 0.964442
vt 0.500000 0.964442
vt 0.000000 0.000000
vt 0.000000 0.000000
vt 0.500000 0.500000
vt 0.500000 0.035558
vt 0.500000 0.035558
vt 0.500000 0.500000
vt 0.550733 0.536093
vt 0.550734 0.964442
vt 0.550734 0.964442
vt 0.550733 0.536093
vt 0.550734 0.500000
vt 0.550734 0.500000
vt 0.000000 0.000000
vt 0.000000 0.000000
vt 0.000000 0.000000
vt 0.000000 0.000000
vt 0.943455 0.500000
vt 0.000000 0.500000
vt 0.550733 0.000000
vt 1.000000 0.000000
vt 1.000000 0.536093
vt 1.000000 1.000000
vt 0.500000 1.000000
vt 0.000000 1.000000
vt 0.000000 0.536093
vt 1.000000 0.500000
vt 0.500000 0.000000
vt 0.550734 1.000000
vt 0.000000 0.000000
vt 0.000000 0.000000
vt 0.943455 0.500000
vn 0.0000 1.0000 0.0000
vn 0.0000 0.0000 -1.0000
vn 0.0000 -1.0000 0.0000
vn 0.0000 0.0000 1.0000
vn 1.0000 0.0000 0.0000
s off
f 22/1/1 21/2/1 33/3/1 34/4/1
f 12/5/2 25/6/2 37/7/2 43/8/2
f 11/9/1 5/10/1 45/11/1 53/12/1
f 20/13/2 19/14/2 31/15/2 32/16/2
f 8/17/2 3/18/2 52/19/2 51/20/2
f 18/21/3 17/22/3 29/23/3 30/24/3
f 25/6/3 24/25/3 36/26/3 37/7/3
f 10/27/3 4/28/3 50/29/3 49/30/3
f 13/31/4 2/32/4 48/33/4 47/34/4
f 23/35/1 12/5/1 43/8/1 35/36/1
f 5/10/1 1/37/1 46/38/1 45/11/1
f 9/39/1 27/40/1 40/41/1 39/42/1
f 16/43/3 28/44/3 41/45/3 44/46/3
f 19/14/3 15/47/3 42/48/3 31/15/3
f 4/28/2 14/49/2 56/50/2 50/29/2
f 7/51/4 13/31/4 47/34/4 55/52/4
f 27/40/2 18/21/2 30/24/2 40/41/2
f 29/23/5 39/42/5 43/8/5 37/7/5
f 42/48/5 38/53/5 33/3/5 44/46/5
f 39/42/5 42/48/5 44/46/5 43/8/5
f 40/41/5 31/15/5 42/48/5 39/42/5
f 43/8/5 44/46/5 41/45/5 35/36/5
f 30/24/5 29/23/5 45/54/5 46/38/5
f 32/16/5 31/15/5 47/55/5 48/56/5
f 34/4/5 33/3/5 49/57/5 50/58/5
f 36/26/5 35/36/5 51/59/5 52/60/5
f 29/23/5 37/7/5 53/61/5 45/54/5
f 38/53/5 32/16/5 48/56/5 54/62/5
f 40/41/5 30/24/5 46/38/5 55/63/5
f 35/36/5 41/45/5 56/64/5 51/59/5
f 33/3/5 38/53/5 54/62/5 49/57/5
f 37/7/5 36/26/5 52/60/5 53/61/5
f 31/15/5 40/41/5 55/63/5 47/55/5
f 41/45/5 34/4/5 50/58/5 56/64/5
f 2/32/3 6/65/3 54/66/3 48/33/3
f 24/25/4 23/35/4 35/36/4 36/26/4
f 1/37/4 7/51/4 55/52/4 46/38/4
f 14/49/2 8/17/2 51/20/2 56/50/2
f 28/44/4 22/1/4 34/4/4 41/45/4
f 26/67/1 20/13/1 32/16/1 38/53/1
f 6/65/3 10/27/3 49/30/3 54/66/3
f 15/47/4 26/67/4 38/53/4 42/48/4
f 17/22/4 9/39/4 39/42/4 29/23/4
f 3/18/1 11/9/1 53/12/1 52/19/1
f 21/2/2 16/43/2 44/46/2 33/3/2
